# xmcd CD database file
#
# Track frame offsets:
#	150
#	21567
#	45733
#	69251
#	90054
#	107695
#	130021
#	154365
#	188568
#	204194
#	224356
#
# Disc length: 3154 seconds
#
# Revision: 1
# Processed by: cddbd v1.5.2PL0 Copyright (c) Steve Scherf et al.
# Submitted via: CDex 1.51
#
DISCID=8b0c500b
DTITLE=Dani Wilde - Shine
DYEAR=2010
DGENRE=Blues
TTITLE0=Shine
TTITLE1=Some Kinda Crazy
TTITLE2=Miss You
TTITLE3=How Do You Do It
TTITLE4=Red Blooded Woman
TTITLE5=Don´t Give Up On Me
TTITLE6=I Don´t Even Care
TTITLE7=Abandoned Child
TTITLE8=Born To Love Him
TTITLE9=Where Blue Begins
TTITLE10=Big Brown Eyes
EXTD=YEAR: 2010
EXTT0=
EXTT1=
EXTT2=
EXTT3=
EXTT4=
EXTT5=
EXTT6=
EXTT7=
EXTT8=
EXTT9=
EXTT10=
PLAYORDER=
